<svg width="32" height="33" viewBox="0 0 32 33" fill="none" xmlns="http://www.w3.org/2000/svg">
<g clip-path="url(#clip0_70_1224)">
<path fill-rule="evenodd" clip-rule="evenodd" d="M32 16.8367C32 21.0801 30.3143 25.1498 27.3137 28.1504C24.3131 31.151 20.2435 32.8367 16 32.8367C11.7565 32.8367 7.68687 31.151 4.68629 28.1504C1.68571 25.1498 0 21.0801 0 16.8367C0 12.5932 1.68571 8.52354 4.68629 5.52296C7.68687 2.52238 11.7565 0.83667 16 0.83667C20.2435 0.83667 24.3131 2.52238 27.3137 5.52296C30.3143 8.52354 32 12.5932 32 16.8367ZM24.06 10.7767C23.9171 10.6343 23.747 10.5222 23.5599 10.4471C23.3727 10.372 23.1723 10.3354 22.9706 10.3395C22.769 10.3436 22.5703 10.3883 22.3863 10.471C22.2023 10.5537 22.0369 10.6726 21.9 10.8207L14.954 19.6707L10.768 15.4827C10.4837 15.2177 10.1076 15.0735 9.71896 15.0803C9.33035 15.0872 8.95958 15.2446 8.68476 15.5194C8.40993 15.7943 8.25251 16.165 8.24565 16.5536C8.23879 16.9422 8.38304 17.3183 8.648 17.6027L13.94 22.8967C14.0826 23.039 14.2523 23.1511 14.4392 23.2264C14.626 23.3016 14.8261 23.3385 15.0275 23.3348C15.2289 23.3311 15.4275 23.2868 15.6114 23.2047C15.7953 23.1225 15.9608 23.0042 16.098 22.8567L24.082 12.8767C24.3542 12.5937 24.5046 12.2152 24.5008 11.8226C24.4971 11.43 24.3395 11.0544 24.062 10.7767H24.06Z" fill="#D39D5D"/>
</g>
<defs>
<clipPath id="clip0_70_1224">
<rect width="32" height="32" fill="white" transform="translate(0 0.83667)"/>
</clipPath>
</defs>
</svg>
